<?xml version="1.0" encoding="UTF-8"?>
<svg version="1.1" xmlns="http://www.w3.org/2000/svg" width="512" height="512">
<path d="M0 0 C1.01790619 0.00215515 2.03581238 0.0043103 3.08456421 0.00653076 C17.69363523 0.05620146 32.02575853 0.30709809 46.375 3.3125 C47.34985352 3.51117676 48.32470703 3.70985352 49.32910156 3.91455078 C97.7109774 14.03517194 141.69928269 35.9516877 177.375 70.3125 C178.3640332 71.26068604 178.3640332 71.26068604 179.37304688 72.22802734 C188.86130305 81.37247479 197.6012044 90.66984009 205.375 101.3125 C206.23306152 102.46355017 207.09113451 103.61459177 207.94921875 104.765625 C213.98736829 112.95680614 219.34595521 121.47054105 224.375 130.3125 C224.73948242 130.94430176 225.10396484 131.57610352 225.47949219 132.22705078 C247.08534998 169.97532572 256.85198095 212.74189997 256.6875 255.9375 C256.68534485 256.95540619 256.6831897 257.97331238 256.68096924 259.02206421 C256.63129854 273.63113523 256.38040191 287.96325853 253.375 302.3125 C253.07698486 303.77478027 253.07698486 303.77478027 252.77294922 305.26660156 C242.65232806 353.6484774 220.7358123 397.63678269 186.375 433.3125 C185.74287598 433.97185547 185.11075195 434.63121094 184.45947266 435.31054688 C175.31502521 444.79880305 166.01765991 453.5387044 155.375 461.3125 C154.22394983 462.17056152 153.07290823 463.02863451 151.921875 463.88671875 C143.73224019 469.92427396 135.22961724 475.30707302 126.375 480.3125 C125.66778809 480.7146875 124.96057617 481.116875 124.23193359 481.53125 C101.09654164 494.5566741 75.92537591 503.30551461 49.9375 508.625 C49.21860596 508.77235596 48.49971191 508.91971191 47.7590332 509.0715332 C33.08339502 511.86090125 18.55831162 512.66142619 3.64770508 512.62817383 C0.70811513 512.6250221 -2.2304558 512.64854926 -5.16992188 512.67382812 C-18.54306192 512.71848737 -31.43916711 511.51301542 -44.625 509.3125 C-46.33055054 509.03031616 -46.33055054 509.03031616 -48.07055664 508.74243164 C-91.33802759 500.97044532 -132.38793216 480.98345309 -165.625 452.3125 C-166.37007813 451.67828125 -167.11515625 451.0440625 -167.8828125 450.390625 C-181.38779833 438.57948485 -194.05918743 425.82889772 -204.625 411.3125 C-205.48149066 410.16255169 -206.33826433 409.01281411 -207.1953125 407.86328125 C-213.23534209 399.67315742 -218.61867614 391.16870382 -223.625 382.3125 C-224.0271875 381.60528809 -224.429375 380.89807617 -224.84375 380.16943359 C-237.8691741 357.03404164 -246.61801461 331.86287591 -251.9375 305.875 C-252.08485596 305.15610596 -252.23221191 304.43721191 -252.3840332 303.6965332 C-255.35789088 288.05024391 -255.99800362 272.57681954 -255.9375 256.6875 C-255.93534485 255.66959381 -255.9331897 254.65168762 -255.93096924 253.60293579 C-255.88129854 238.99386477 -255.63040191 224.66174147 -252.625 210.3125 C-252.42632324 209.33764648 -252.22764648 208.36279297 -252.02294922 207.35839844 C-241.90232806 158.9765226 -219.9858123 114.98821731 -185.625 79.3125 C-184.99287598 78.65314453 -184.36075195 77.99378906 -183.70947266 77.31445312 C-174.56502521 67.82619695 -165.26765991 59.0862956 -154.625 51.3125 C-153.47394983 50.45443848 -152.32290823 49.59636549 -151.171875 48.73828125 C-142.98224019 42.70072604 -134.47961724 37.31792698 -125.625 32.3125 C-124.91778809 31.9103125 -124.21057617 31.508125 -123.48193359 31.09375 C-100.34654164 18.0683259 -75.17537591 9.31948539 -49.1875 4 C-48.46860596 3.85264404 -47.74971191 3.70528809 -47.0090332 3.5534668 C-31.36274391 0.57960912 -15.88931954 -0.06050362 0 0 Z " fill="#507CBD" transform="translate(255.625,-0.3125)"/>
<path d="M0 0 C0.66 0 1.32 0 2 0 C2.31462692 0.64400253 2.62925385 1.28800507 2.95341492 1.95152283 C5.93682456 8.05710144 8.92257453 14.16153058 11.91087627 20.26471615 C13.44665282 23.40152712 14.98156023 26.53875681 16.5144043 29.67700195 C18.28167325 33.29509267 20.05285962 36.91125374 21.82421875 40.52734375 C22.36713058 41.64020248 22.91004242 42.75306122 23.46940613 43.89964294 C27.80585499 54.05893964 27.80585499 54.05893964 34 63 C36.14115089 63.39067152 38.29304157 63.7225958 40.44750977 64.03149414 C41.12065216 64.12917587 41.79379456 64.2268576 42.48733521 64.32749939 C44.72147312 64.65068986 46.95641403 64.96793208 49.19140625 65.28515625 C50.73702655 65.50756512 52.28259382 65.73034287 53.82810974 65.95347595 C57.90303059 66.54077386 61.97865544 67.12303893 66.05444336 67.70428467 C70.21055761 68.29788524 74.36599171 68.89620704 78.52148438 69.49414062 C86.68032864 70.66740147 94.83992211 71.83535024 103 73 C103 73.66 103 74.32 103 75 C101.5940094 76.40205383 101.5940094 76.40205383 99.61157227 78.0480957 C91.68101377 84.79823634 84.27268196 92.11262906 76.82446289 99.38598633 C74.89931223 101.26178672 72.95840193 103.11877711 71.00219727 104.9621582 C68.16155305 107.63979062 65.37509806 110.37021799 62.58984375 113.10546875 C61.71295395 113.9183989 60.83606415 114.73132904 59.93260193 115.56889343 C55.35987135 120.11796892 55.35987135 120.11796892 53.6789856 126.16172791 C53.91577381 129.19087115 54.35589411 132.03356165 55 135 C55.165 136.16917969 55.33 137.33835938 55.5 138.54296875 C55.665 139.41566406 55.83 140.28835937 56 141.1875 C56.165 142.08855469 56.33 142.98960937 56.5 143.91796875 C56.80269301 145.97684003 56.80269301 145.97684003 58 147 C58.50521086 149.62344435 58.95706328 152.23728797 59.375 154.875 C59.56908447 156.07274048 59.56908447 156.07274048 59.76708984 157.29467773 C60.04132594 158.99252666 60.31356353 160.69069938 60.58398438 162.38916016 C60.9939533 164.96205199 61.41048444 167.53381237 61.828125 170.10546875 C62.09414563 171.75774885 62.35978222 173.41009084 62.625 175.0625 C62.74794434 175.82224121 62.87088867 176.58198242 62.99755859 177.36474609 C63.82190899 182.56440728 64.44994131 187.76406396 65 193 C60.38 190.69 55.76 188.38 51 186 C50.96261719 184.54207031 50.92523438 183.08414063 50.88671875 181.58203125 C50.82104843 179.6588289 50.75460145 177.73565295 50.6875 175.8125 C50.66494141 174.85279297 50.64238281 173.89308594 50.61914062 172.90429688 C50.42321842 167.75688626 50.182833 164.25799911 47 160 C47 159.34 47 158.68 47 158 C41.27330688 155.03791735 36.40605606 154.29154209 30 155 C26.37143973 156.7153194 24.56549047 158.23951281 22.1875 161.4375 C20.36081757 166.43752886 20.36081757 166.43752886 20 178 C7.79 178 -4.42 178 -17 178 C-17.33 173.71 -17.66 169.42 -18 165 C-18.99 163.35 -19.98 161.7 -21 160 C-21 159.34 -21 158.68 -21 158 C-26.72669312 155.03791735 -31.59394394 154.29154209 -38 155 C-43.06284673 157.39334573 -44.98424326 159.85241783 -47 165 C-47.48872888 168.62098762 -47.60094372 172.22479789 -47.6875 175.875 C-47.72166016 176.84953125 -47.75582031 177.8240625 -47.79101562 178.828125 C-47.87303342 181.21835798 -47.93820464 183.60915874 -48 186 C-52.62 188.31 -57.24 190.62 -62 193 C-61.35300667 182.20496063 -59.49201929 171.74665615 -57.5625 161.125 C-51.75418523 139.88694266 -51.75418523 139.88694266 -53.35083008 120.04116821 C-53.98400146 119.41608368 -54.61717285 118.79099915 -55.26953125 118.14697266 C-55.98447754 117.42917633 -56.69942383 116.71138 -57.43603516 115.97183228 C-58.22026855 115.21026825 -59.00450195 114.44870422 -59.8125 113.6640625 C-60.61478027 112.86648529 -61.41706055 112.06890808 -62.24365234 111.24716187 C-64.81763903 108.69454396 -67.40870637 106.16003433 -70 103.625 C-71.7159317 101.92557698 -73.43078847 100.22506786 -75.14453125 98.5234375 C-85.01190511 88.75435032 -85.01190511 88.75435032 -95.31787109 79.4546814 C-97.32068269 77.72267812 -99.23957438 75.98047882 -101 74 C-101 73.34 -101 72.68 -101 72 C-100.45214844 71.94054199 -99.90429688 71.88108398 -99.33984375 71.81982422 C-85.33837336 70.27453999 -71.39355537 68.4004053 -57.45996094 66.3381958 C-55.65688149 66.07159182 -53.85349488 65.80705688 -52.04980469 65.5446167 C-49.48530808 65.17039147 -46.92222602 64.78765897 -44.359375 64.40234375 C-43.58946228 64.29092545 -42.81954956 64.17950714 -42.02630615 64.06471252 C-35.10673991 63.21451283 -35.10673991 63.21451283 -29.63232422 59.37231445 C-29.2767041 58.7093335 -28.92108398 58.04635254 -28.5546875 57.36328125 C-28.12639648 56.57646973 -27.69810547 55.7896582 -27.25683594 54.97900391 C-26.80083008 54.09905762 -26.34482422 53.21911133 -25.875 52.3125 C-25.13685059 50.92683838 -25.13685059 50.92683838 -24.38378906 49.51318359 C-15.83008521 33.23032211 -7.96997926 16.57364952 0 0 Z " fill="#FDFEFE" transform="translate(255,100)"/>
<path d="M0 0 C3 3 3 3 4 23 C21.16 23 38.32 23 56 23 C56.33 16.4 56.66 9.8 57 3 C60 0 60 0 63.5 -0.375 C67 0 67 0 68.69452 1.15377903 C70.55263679 3.78154367 70.38044653 5.71120345 70.38768005 8.91453552 C70.39758469 10.14975952 70.40748932 11.38498352 70.41769409 12.65763855 C70.41345583 14.0288401 70.40889795 15.40004069 70.40405273 16.77124023 C70.40975417 18.21345551 70.41671755 19.65566626 70.42485046 21.09786987 C70.44282268 25.01732213 70.44160588 28.93655101 70.43590808 32.85603213 C70.43282193 36.12651408 70.4389023 39.39695276 70.44494683 42.66742855 C70.45900391 50.38224469 70.45742109 58.09695013 70.44604492 65.81176758 C70.43456337 73.77405553 70.44863713 81.73600667 70.4754414 89.69825023 C70.49758465 96.53146186 70.50423887 103.36456765 70.49836498 110.19781262 C70.49499077 114.28028205 70.49744099 118.36253559 70.51461601 122.4449749 C70.53006127 126.28396884 70.52615708 130.1224632 70.50731087 133.96143723 C70.50361814 135.37074626 70.50675342 136.78009211 70.51719666 138.18936729 C70.53035926 140.11236748 70.51648026 142.03549627 70.50120544 143.95848083 C70.50089152 145.57314822 70.50089152 145.57314822 70.50057125 147.22043514 C69.87698824 150.68305794 68.74396228 151.8645986 66 154 C63.5 154.5 63.5 154.5 61 154 C59.02 152.02 59.02 152.02 57 150 C57 143.4 57 136.8 57 130 C39.51 130 22.02 130 4 130 C3.67 136.6 3.34 143.2 3 150 C-1 154 -1 154 -3.5 154.5 C-6.84219082 153.83156184 -7.88504657 152.64651249 -10 150 C-10.50057125 147.22043514 -10.50057125 147.22043514 -10.50120544 143.95848083 C-10.51103958 142.72043701 -10.52087372 141.48239319 -10.53100586 140.20683289 C-10.5216342 138.83767425 -10.5118549 137.46851835 -10.50170898 136.09936523 C-10.50549257 134.65537998 -10.51099294 133.21139835 -10.51808167 131.76742554 C-10.5320474 127.84801023 -10.52085952 123.92903334 -10.50437045 120.00964236 C-10.49052593 115.90975008 -10.49697924 111.80988341 -10.50050354 107.7099762 C-10.50320584 100.82586597 -10.48972741 93.94193008 -10.46655273 87.05786133 C-10.43993224 79.09500429 -10.43819913 71.13243857 -10.4499411 63.16955227 C-10.46071324 55.51287442 -10.45453696 47.85630211 -10.44038582 40.19963264 C-10.43462215 36.93930636 -10.43471164 33.67905722 -10.43945122 30.41872978 C-10.44421713 26.58141354 -10.43413571 22.7444171 -10.41249657 18.90716171 C-10.40692359 17.49744177 -10.4064681 16.08769113 -10.41144943 14.67796898 C-10.41738754 12.75681733 -10.40308437 10.83563459 -10.38768005 8.91453552 C-10.38525016 7.83846763 -10.38282026 6.76239973 -10.38031673 5.65372372 C-10 3 -10 3 -8.69452 1.15377903 C-5.84557182 -0.78603677 -3.32295782 -0.35603119 0 0 Z " fill="#FCFDFE" transform="translate(226,263)"/>
<path d="M0 0 C0.66 0 1.32 0 2 0 C2.40890221 0.85777542 2.40890221 0.85777542 2.82606506 1.73287964 C5.66891919 7.68413916 8.54547688 13.61820715 11.44213867 19.54345703 C12.51858203 21.75667777 13.58636885 23.97413067 14.64526367 26.19580078 C16.16928942 29.38947346 17.7238453 32.56660946 19.28515625 35.7421875 C19.98560814 37.23599442 19.98560814 37.23599442 20.70021057 38.75997925 C23.36139496 44.24432845 23.36139496 44.24432845 28.28076172 47.54907227 C29.50811035 47.69787842 30.73545898 47.84668457 32 48 C33.45756524 48.25137724 34.91465347 48.5055308 36.37133789 48.76196289 C37.9877416 49.00360685 39.60489359 49.24028423 41.22265625 49.47265625 C42.08636337 49.60063095 42.9500705 49.72860565 43.83995056 49.86045837 C46.58017174 50.2655542 49.32128193 50.6642116 52.0625 51.0625 C54.80706032 51.46580693 57.55142535 51.87042147 60.29576111 52.2752533 C61.99737711 52.52577282 63.69916164 52.77515117 65.40113831 53.02320862 C69.60910208 53.63777298 73.80801059 54.28246743 78 55 C73.7978612 60.0564753 69.37538104 64.63912837 64.59765625 69.1484375 C63.19852837 70.49600448 61.80078107 71.84500607 60.40429688 73.1953125 C58.22808104 75.29736996 56.04596678 77.39051454 53.83959961 79.4609375 C51.69367342 81.47951255 49.58147411 83.52871454 47.47265625 85.5859375 C46.80823013 86.19561371 46.14380402 86.80528992 45.45924377 87.43344116 C42.09278247 90.73387803 42.09278247 90.73387803 40.76911926 95.11274719 C41.00716037 97.47253289 41.46157311 99.69081549 42 102 C42.26067025 103.61378177 42.51251035 105.22901135 42.75610352 106.84545898 C43.04461197 108.56274654 43.33563817 110.27961261 43.62890625 111.99609375 C43.8598423 113.36822777 43.8598423 113.36822777 44.09544373 114.76808167 C44.58210646 117.65829141 45.07201959 120.54793588 45.5625 123.4375 C46.05623676 126.35210856 46.54923573 129.26683455 47.04026794 132.18190002 C47.34465601 133.98844346 47.65064485 135.79471805 47.95838928 137.60069275 C49 143.77554312 49 143.77554312 49 146 C44.93218367 144.73173022 41.24343609 143.22180566 37.47265625 141.2421875 C36.43987549 140.70223145 35.40709473 140.16227539 34.34301758 139.60595703 C33.26044678 139.03474121 32.17787598 138.46352539 31.0625 137.875 C29.94963623 137.29476074 28.83677246 136.71452148 27.69018555 136.11669922 C22.83682841 133.57988528 18.00040449 131.02595622 13.234375 128.328125 C12.55753662 127.94930176 11.88069824 127.57047852 11.18334961 127.18017578 C9.44378897 126.19904814 7.71552435 125.19796596 5.98828125 124.1953125 C1.94331116 122.57732446 -0.85780381 123.09159957 -4.86955261 124.79278564 C-6.99526568 125.83079551 -9.08472008 126.92166738 -11.171875 128.03515625 C-11.93550354 128.43327011 -12.69913208 128.83138397 -13.48590088 129.24156189 C-15.91145641 130.50739228 -18.33101323 131.78416779 -20.75 133.0625 C-23.18401014 134.34288825 -25.61922105 135.62084741 -28.0569458 136.89414978 C-29.57064655 137.68537873 -31.08207975 138.48096372 -32.59100342 139.28126526 C-37.77663528 142 -37.77663528 142 -40 142 C-41.90499027 138.19001947 -42.18642825 135.00491879 -41 131 C-36.94819972 125.89724337 -32.12877513 121.69589647 -27.20506287 117.45339966 C-19.80634292 111.05692342 -12.87419339 104.20728236 -5.92504883 97.33007812 C-4.34365087 95.77041479 -2.7560116 94.21705571 -1.16235352 92.66992188 C1.15508847 90.41930403 3.45229843 88.14968337 5.74609375 85.875 C6.81626991 84.84656982 6.81626991 84.84656982 7.9080658 83.79736328 C12.09147272 79.59623073 13.90696838 77.00078326 14 71 C3.94309822 69.37617302 -6.10556466 67.79250979 -16.21484375 66.52734375 C-19.27725242 66.10069239 -22.31522896 65.6206765 -25.36328125 65.10546875 C-33.31074855 63.76425226 -41.28015203 62.57420304 -49.25 61.375 C-50.78516892 61.14331312 -52.32032526 60.91154282 -53.85546875 60.6796875 C-57.57016845 60.11883225 -61.28503538 59.5590977 -65 59 C-65.66 57.02 -66.32 55.04 -67 53 C-66.16452637 52.89453857 -65.32905273 52.78907715 -64.46826172 52.68041992 C-61.29543018 52.27697515 -58.12335444 51.86809336 -54.95166016 51.45581055 C-53.59255455 51.28021014 -52.23318636 51.10662741 -50.87353516 50.93530273 C-46.23826072 50.35031806 -41.6201834 49.69198468 -37 49 C-35.05057495 48.74017334 -35.05057495 48.74017334 -33.06176758 48.47509766 C-26.64841764 47.57036889 -26.64841764 47.57036889 -21.17871094 44.41479492 C-19.79202182 42.334496 -18.86193238 40.3221838 -17.9375 38 C-17.56447754 37.19071045 -17.19145508 36.3814209 -16.80712891 35.54760742 C-15.97535988 33.73917299 -15.16460654 31.92097139 -14.37158203 30.09521484 C-12.82438616 26.60369663 -11.1727937 23.16876182 -9.49609375 19.73828125 C-8.89001296 18.49676548 -8.28397448 17.25522905 -7.67797852 16.01367188 C-7.37932892 15.40193115 -7.08067932 14.79019043 -6.77297974 14.15991211 C-4.48566058 9.45421449 -2.24592276 4.72555291 0 0 Z " fill="#FCFDFE" transform="translate(359,95)"/>
<path d="M0 0 C0.66 0 1.32 0 2 0 C2.4532666 0.96711914 2.9065332 1.93423828 3.37353516 2.93066406 C5.08293749 6.57689331 6.79436249 10.22217033 8.50634766 13.8671875 C9.24191125 15.43399254 9.97695251 17.00104293 10.71142578 18.56835938 C12.47368425 22.32848522 14.24458852 26.08380967 16.03613281 29.83007812 C17.27917943 32.43687579 18.46141113 35.05482583 19.58105469 37.71679688 C20.05704102 38.79509766 20.53302734 39.87339844 21.0234375 40.984375 C21.41192871 41.91475586 21.80041992 42.84513672 22.20068359 43.80371094 C24.85655575 47.04553264 28.04955599 47.37545751 32 48 C32.66315216 48.11204773 33.32630432 48.22409546 34.009552 48.33953857 C36.05265172 48.66301969 38.09804486 48.94550274 40.1484375 49.21875 C41.66279188 49.43076498 43.17711392 49.64301107 44.69140625 49.85546875 C47.04792129 50.18110167 49.40474826 50.50402201 51.76220703 50.82275391 C54.0586925 51.13498496 56.35356005 51.45744242 58.6484375 51.78125 C59.35672699 51.87402222 60.06501648 51.96679443 60.79476929 52.06237793 C65.77332696 52.77332696 65.77332696 52.77332696 68 55 C67.24169922 56.94116211 67.24169922 56.94116211 66 59 C62.96979694 59.73765549 60.20429796 60.21175968 57.125 60.5625 C55.30071031 60.80154258 53.47649347 61.04114166 51.65234375 61.28125 C50.71503418 61.39855469 49.77772461 61.51585937 48.81201172 61.63671875 C44.42555959 62.20340053 40.05834881 62.88758329 35.6875 63.5625 C29.79825645 64.45359796 23.90621492 65.29186237 18 66.0625 C2.05834937 66.88769139 2.05834937 66.88769139 -12 72 C-12.48441788 74.94543373 -12.64262738 77.06159189 -10.90625 79.59716797 C-9.33572978 81.29351777 -7.69985073 82.87086053 -6 84.4375 C-5.17048828 85.23897461 -5.17048828 85.23897461 -4.32421875 86.05664062 C-1.41070716 88.84624425 1.58906854 91.51028808 4.65625 94.12890625 C11.15991476 99.78123628 17.10307662 106.04858539 23.15478516 112.17529297 C24.77812198 113.81692905 26.40403821 115.4559553 28.03125 117.09375 C28.80856224 117.87881927 28.80856224 117.87881927 29.60157776 118.67974854 C33.10092125 122.18514692 36.72955802 125.43785199 40.63452148 128.49316406 C42.40082417 130.44231839 42.5113234 131.6473041 42.5625 134.25 C42 138 42 138 41 141 C35.59860888 139.43325033 30.92080875 136.9689841 26 134.3125 C24.31025999 133.41597998 22.62015249 132.52015227 20.9296875 131.625 C18.56120814 130.36597107 16.19420233 129.10467147 13.83300781 127.83203125 C11.93682052 126.81263508 10.03240061 125.81070979 8.125 124.8125 C7.05507812 124.24144531 5.98515625 123.67039062 4.8828125 123.08203125 C0.71025058 121.51590706 -1.79228978 122.45681023 -5.79223633 124.25585938 C-6.79536865 124.77986328 -7.79850098 125.30386719 -8.83203125 125.84375 C-9.95375732 126.42688965 -11.0754834 127.0100293 -12.23120117 127.61083984 C-13.42513165 128.24024851 -14.61889512 128.86997409 -15.8125 129.5 C-17.02891681 130.1364903 -18.24547011 130.77271982 -19.4621582 131.40869141 C-28.40679056 136.09834561 -37.2591606 140.94021854 -46 146 C-46.93303905 142.98759263 -47.00534988 140.91391751 -46.37915039 137.83325195 C-46.21890884 137.02173172 -46.0586673 136.21021149 -45.89356995 135.37409973 C-45.71341843 134.50427963 -45.53326691 133.63445953 -45.34765625 132.73828125 C-45.16867294 131.83305222 -44.98968964 130.92782318 -44.80528259 129.99516296 C-44.04051081 126.12871389 -43.25583565 122.26636926 -42.47290039 118.40356445 C-41.90338195 115.57897342 -41.34408995 112.75248267 -40.78515625 109.92578125 C-40.60702896 109.06608231 -40.42890167 108.20638336 -40.24537659 107.32063293 C-38.08942413 97.62501911 -38.08942413 97.62501911 -40.52539062 88.43701172 C-41.22857422 87.77459473 -41.93175781 87.11217773 -42.65625 86.4296875 C-43.43226562 85.67816406 -44.20828125 84.92664063 -45.0078125 84.15234375 C-45.83023438 83.40082031 -46.65265625 82.64929688 -47.5 81.875 C-48.29148437 81.11574219 -49.08296875 80.35648437 -49.8984375 79.57421875 C-54.22671491 75.45171191 -58.69096174 71.49764818 -63.20507812 67.58105469 C-65.72400772 65.36225871 -68.11693184 63.05218029 -70.5 60.6875 C-71.3559375 59.84574219 -72.211875 59.00398438 -73.09375 58.13671875 C-75 56 -75 56 -75 54 C-73.71424072 53.83395264 -72.42848145 53.66790527 -71.10375977 53.49682617 C-66.29981754 52.87401036 -61.49749489 52.23938568 -56.69555664 51.60131836 C-54.62338402 51.327623 -52.55079458 51.05706327 -50.4777832 50.78979492 C-47.48531885 50.40341518 -44.49457201 50.00550426 -41.50390625 49.60546875 C-40.58791153 49.48970993 -39.67191681 49.37395111 -38.72816467 49.25468445 C-27.91898078 48.07896408 -27.91898078 48.07896408 -19.60473633 41.92822266 C-18.98276161 40.68861197 -18.39303202 39.43243364 -17.83203125 38.1640625 C-17.5038591 37.48886566 -17.17568695 36.81366882 -16.83757019 36.11801147 C-15.80004161 33.96620466 -14.80619843 31.79733855 -13.8125 29.625 C-13.13624936 28.20570054 -12.45723194 26.7877159 -11.77539062 25.37109375 C-9.81022094 21.26551858 -7.90072053 17.13571136 -6 13 C-5.39280756 11.68699304 -4.78523345 10.3741625 -4.17724609 9.06152344 C-2.7808772 6.04281215 -1.38839054 3.02238674 0 0 Z " fill="#FDFDFE" transform="translate(151,95)"/>
<path d="M0 0 C1.49164673 -0.00945648 1.49164673 -0.00945648 3.01342773 -0.019104 C4.09052002 -0.01505554 5.1676123 -0.01100708 6.27734375 -0.00683594 C7.37957275 -0.00874939 8.48180176 -0.01066284 9.61743164 -0.01263428 C11.95101143 -0.01399706 14.28459878 -0.01029416 16.61816406 -0.00195312 C20.20004222 0.00874485 23.78141878 -0.00184552 27.36328125 -0.01464844 C29.6263032 -0.01332686 31.88932483 -0.0107645 34.15234375 -0.00683594 C35.76798218 -0.01290863 35.76798218 -0.01290863 37.41625977 -0.019104 C38.41069092 -0.01279968 39.40512207 -0.00649536 40.4296875 0 C41.3074585 0.00159119 42.18522949 0.00318237 43.08959961 0.00482178 C45.21484375 0.25878906 45.21484375 0.25878906 47.21484375 2.25878906 C47.45776367 5.22387695 47.45776367 5.22387695 47.4453125 8.98144531 C47.44485428 9.64212509 47.44439606 10.30280487 47.44392395 10.98350525 C47.44090296 12.37972816 47.43302117 13.77594773 47.4206543 15.17211914 C47.40238571 17.31636405 47.40014469 19.46017755 47.40039062 21.60449219 C47.36227587 32.11135695 47.36227587 32.11135695 46.21484375 33.25878906 C44.59356952 33.35740504 42.96802007 33.38677673 41.34375 33.38818359 C39.78708618 33.39291183 39.78708618 33.39291183 38.19897461 33.3977356 C36.50526733 33.39469925 36.50526733 33.39469925 34.77734375 33.39160156 C33.05173218 33.39303665 33.05173218 33.39303665 31.29125977 33.39450073 C28.85335231 33.39518275 26.41544305 33.39332697 23.97753906 33.38916016 C20.23107857 33.38381224 16.48473798 33.38910445 12.73828125 33.39550781 C10.37630182 33.39484703 8.01432246 33.39356588 5.65234375 33.39160156 C4.52320557 33.39362579 3.39406738 33.39565002 2.23071289 33.3977356 C0.67404907 33.39300735 0.67404907 33.39300735 -0.9140625 33.38818359 C-1.8326001 33.387388 -2.7511377 33.38659241 -3.69750977 33.38577271 C-5.78515625 33.25878906 -5.78515625 33.25878906 -6.78515625 32.25878906 C-7.00325381 28.0013048 -6.97094786 23.73833182 -6.97045898 19.47583008 C-6.97264368 17.33361907 -6.99079137 15.19192435 -7.00976562 13.04980469 C-7.01269984 11.69368666 -7.01468445 10.33756618 -7.015625 8.98144531 C-7.01973389 7.74144775 -7.02384277 6.5014502 -7.02807617 5.22387695 C-6.61656624 0.20097431 -4.49444392 0.00814734 0 0 Z " fill="#527DBD" transform="translate(235.78515625,345.7412109375)"/>
<path d="M0 0 C1.03777588 -0.00315216 2.07555176 -0.00630432 3.14477539 -0.009552 C4.83848267 -0.00651566 4.83848267 -0.00651566 6.56640625 -0.00341797 C7.71681396 -0.00437469 8.86722168 -0.00533142 10.05249023 -0.00631714 C12.49039769 -0.00699916 14.92830695 -0.00514337 17.36621094 -0.00097656 C21.11267143 0.00437136 24.85901202 -0.00092086 28.60546875 -0.00732422 C30.96744818 -0.00666344 33.32942754 -0.00538229 35.69140625 -0.00341797 C36.82054443 -0.0054422 37.94968262 -0.00746643 39.11303711 -0.009552 C40.15081299 -0.00639984 41.18858887 -0.00324768 42.2578125 0 C43.1763501 0.00079559 44.0948877 0.00159119 45.04125977 0.00241089 C47.12890625 0.12939453 47.12890625 0.12939453 48.12890625 1.12939453 C48.34700381 5.3868788 48.31469786 9.64985177 48.31420898 13.91235352 C48.31639368 16.05456453 48.33454137 18.19625924 48.35351562 20.33837891 C48.35644984 21.69449693 48.35843445 23.05061741 48.359375 24.40673828 C48.36348389 25.64673584 48.36759277 26.8867334 48.37182617 28.16430664 C48.12890625 31.12939453 48.12890625 31.12939453 46.12890625 33.12939453 C44.00366211 33.38336182 44.00366211 33.38336182 41.34375 33.38818359 C40.34931885 33.39448792 39.3548877 33.40079224 38.33032227 33.4072876 C37.25322998 33.40323914 36.1761377 33.39919067 35.06640625 33.39501953 C33.96417725 33.39693298 32.86194824 33.39884644 31.72631836 33.40081787 C29.39273857 33.40218065 27.05915122 33.39847775 24.72558594 33.39013672 C21.14370778 33.37943874 17.56233122 33.39002911 13.98046875 33.40283203 C11.7174468 33.40151045 9.45442517 33.3989481 7.19140625 33.39501953 C6.11431396 33.39906799 5.03722168 33.40311646 3.92749023 33.4072876 C2.43584351 33.39783112 2.43584351 33.39783112 0.9140625 33.38818359 C0.0362915 33.38659241 -0.84147949 33.38500122 -1.74584961 33.38336182 C-3.87109375 33.12939453 -3.87109375 33.12939453 -5.87109375 31.12939453 C-6.11401367 28.16430664 -6.11401367 28.16430664 -6.1015625 24.40673828 C-6.10110428 23.7460585 -6.10064606 23.08537872 -6.10017395 22.40467834 C-6.09715296 21.00845544 -6.08927117 19.61223586 -6.0769043 18.21606445 C-6.05863571 16.07181955 -6.05639469 13.92800604 -6.05664062 11.78369141 C-6.01391294 0.00520896 -6.01391294 0.00520896 0 0 Z " fill="#527DBD" transform="translate(234.87109375,300.87060546875)"/>
</svg>
